<svg xmlns="http://www.w3.org/2000/svg" viewBox="0 0 173.9 206.16"><defs><style>.cls-1,.cls-3,.cls-6,.cls-8{fill:#7f56d9;}.cls-1,.cls-2{stroke:#fff;stroke-width:0.75px;}.cls-1,.cls-2,.cls-3,.cls-7,.cls-8{stroke-miterlimit:10;}.cls-2,.cls-5,.cls-7{fill:none;}.cls-3,.cls-7,.cls-8{stroke:#7f56d9;}.cls-3{stroke-width:8px;}.cls-4{fill:#e8eaea;}.cls-8{stroke-width:2px;}</style></defs><title>Asset 1</title><g id="Layer_2" data-name="Layer 2"><g id="Layer_1-2" data-name="Layer 1"><path class="cls-1" d="M14.44,93.19H12.23c-.5,41.45-.5,112.59-.5,112.59H167.84L14.49,95.11Z"/><path class="cls-1" d="M165.13,93.19l0,1.92L11.73,205.78H167.84s0-71.14-.5-112.59Z"/><line class="cls-2" x1="83.55" y1="144.38" x2="167.84" y2="205.78"/><line class="cls-3" x1="12.88" y1="93.19" x2="166.7" y2="93.19"/><path class="cls-4" d="M20.37,0H158.43V98.13l-69,51.35-69-51.35Z"/><line class="cls-5" y1="64.5" x2="173.9" y2="64.5"/><rect class="cls-6" x="37.49" y="12.95" width="49.46" height="22.29"/><line class="cls-5" x1="28.6" y1="46.85" x2="139.63" y2="46.85"/><line class="cls-7" x1="28.6" y1="46.85" x2="148.52" y2="46.85"/><line class="cls-7" x1="28.6" y1="56.14" x2="148.52" y2="56.14"/><line class="cls-7" x1="28.6" y1="65.43" x2="148.52" y2="65.43"/><line class="cls-7" x1="28.6" y1="74.71" x2="148.52" y2="74.71"/><line class="cls-7" x1="28.6" y1="84" x2="148.52" y2="84"/><line class="cls-7" x1="28.6" y1="93.29" x2="148.52" y2="93.29"/><polygon class="cls-8" points="139.63 18.52 97.64 18.52 97.64 18.52 139.63 18.52 139.63 18.52"/><polygon class="cls-8" points="139.63 24.09 97.64 24.09 97.64 24.09 139.63 24.09 139.63 24.09"/><polygon class="cls-8" points="139.63 29.66 97.64 29.66 97.64 29.66 139.63 29.66 139.63 29.66"/><line class="cls-7" x1="28.6" y1="101.96" x2="148.52" y2="101.96"/><line class="cls-7" x1="28.6" y1="110.63" x2="148.52" y2="110.63"/><line class="cls-7" x1="28.6" y1="119.29" x2="148.52" y2="119.29"/><line class="cls-7" x1="28.6" y1="127.96" x2="148.52" y2="127.96"/><line class="cls-7" x1="28.6" y1="136.63" x2="148.52" y2="136.63"/></g></g></svg>